<svg xmlns="http://www.w3.org/2000/svg" viewBox="0 0 1280 720" role="img" aria-label="Video institucional EPSAS">
  <defs>
    <linearGradient id="bg" x1="0" x2="1" y1="0" y2="1">
      <stop offset="0" stop-color="#001b48"/>
      <stop offset=".45" stop-color="#02457a"/>
      <stop offset="1" stop-color="#018abe"/>
    </linearGradient>
    <filter id="blur">
      <feGaussianBlur stdDeviation="22"/>
    </filter>
  </defs>
  <rect width="1280" height="720" fill="url(#bg)"/>
  <circle cx="1010" cy="125" r="175" fill="#97cadb" opacity=".35" filter="url(#blur)"/>
  <circle cx="260" cy="610" r="220" fill="#018abe" opacity=".42" filter="url(#blur)"/>
  <path d="M0 465c132-50 227 32 360 4 171-36 246-122 438-58 167 55 271 66 482 4v305H0z" fill="#fff" opacity=".14"/>
  <path d="M0 540c132-50 227 32 360 4 171-36 246-122 438-58 167 55 271 66 482 4v230H0z" fill="#d6e8ee" opacity=".36"/>
  <circle cx="640" cy="360" r="74" fill="#fff" opacity=".9"/>
  <path d="M616 316l90 47-90 47z" fill="#018abe"/>
  <text x="90" y="118" fill="#fff" font-family="Manrope, Arial, sans-serif" font-size="34" font-weight="900" letter-spacing="8">EPSAS EL PORTILLO</text>
  <text x="90" y="174" fill="#d6e8ee" font-family="Manrope, Arial, sans-serif" font-size="22" font-weight="800">Pagos QR y servicio ciudadano</text>
</svg>
